<?xml version="1.0" encoding="UTF-8"?>
<svg id="Layer_1" xmlns="http://www.w3.org/2000/svg" version="1.1" viewBox="0 0 309.42 336.27">
  <!-- Generator: Adobe Illustrator 30.6.0, SVG Export Plug-In . SVG Version: 2.1.4 Build 109)  -->
  <defs>
    <style>
      .st0 {
        stroke-width: 9.82px;
      }

      .st0, .st1, .st2, .st3 {
        stroke: #fff;
        stroke-miterlimit: 10;
      }

      .st0, .st3 {
        fill: none;
      }

      .st1 {
        fill: #00bd00;
      }

      .st1, .st3 {
        stroke-width: 2.08px;
      }

      .st2 {
        fill: #008700;
        stroke-width: 1.28px;
      }

      .st4 {
        fill: #fff;
      }
    </style>
  </defs>
  <g>
    <path class="st0" d="M156.18,31.76c-.49,0-.97,0-1.46,0C71.98,31.75,4.91,98.82,4.91,181.55s67.07,149.8,149.8,149.8,149.8-67.07,149.8-149.8c0-8.59-.76-16.99-2.15-25.18"/>
    <path class="st4" d="M185.63,34.96c-13.36-6.52-29.7-17-39.45-27.36l6.1,24.06-10.7,22.39c11.59-8.24,29.67-15.32,44.05-19.09Z"/>
  </g>
  <circle class="st4" cx="137.37" cy="207.21" r="25.66"/>
  <path class="st4" d="M135.44,182.53c-3.78-14,5.72-30.07,20.24-32.64,10.22-1.81,21.28,1.13,31.63.98,8.8-.13,17.94-.81,26.43-3.24,14.6-4.18,24.91-15.03,30.5-28.92s7.86-31.15.07-44.16c-2.03-3.38-7.33-.3-5.3,3.1,8.31,13.87,3.24,34.88-5.03,47.74-10.38,16.12-28.78,19.1-46.67,19.36-15.6.22-32.85-5.37-46.21,5.33-10.04,8.05-14.96,21.59-11.58,34.09,1.03,3.81,6.95,2.19,5.92-1.63h0Z"/>
  <path class="st4" d="M161.99,201.34c18.83-2.88,33.98-19.38,35.79-38.27,1.15-11.95-5.38-23.58-3.05-35.45,2.61-13.33,19.56-17.15,30.75-20.17,3.81-1.03,2.19-6.95-1.63-5.92-10.06,2.71-22.95,6.03-30.11,14.23s-5.94,19.77-3.95,29.74c2.36,11.83,3.03,22.37-3.67,32.95-5.78,9.13-15.09,15.33-25.76,16.96-3.89.6-2.24,6.51,1.63,5.92h0Z"/>
  <path class="st4" d="M220.56,108.77c13.52-4.39,27.48-5.76,41.6-4.13,3.92.45,3.88-5.69,0-6.14-14.61-1.69-29.24-.19-43.23,4.35-3.74,1.22-2.14,7.14,1.63,5.92h0Z"/>
  <path class="st4" d="M260.8,104.51c11.62,2.46,22.05,9.16,28.49,19.25,7.28,11.4,10.01,25.89,11.79,39.1.52,3.89,6.44,2.24,5.92-1.63-1.97-14.65-5.23-30.87-14.11-43.06-7.35-10.08-18.27-17-30.46-19.58-3.85-.81-5.5,5.1-1.63,5.92h0Z"/>
  <path class="st4" d="M304.5,155.27l-.27-.93c-.22-.75-.74-1.44-1.41-1.83-.35-.22-.73-.35-1.14-.36-.41-.09-.82-.07-1.22.05-.74.24-1.46.7-1.83,1.41s-.54,1.56-.31,2.36l.27.93c.22.75.74,1.44,1.41,1.83.35.22.73.35,1.14.36.41.09.82.07,1.22-.05.74-.24,1.46-.7,1.83-1.41s.54-1.56.31-2.36h0Z"/>
  <path class="st4" d="M303.75,156.76c-.54-8.5-1.81-16.87-3.86-25.14-.95-3.83-6.87-2.21-5.92,1.63,1.92,7.74,3.13,15.55,3.64,23.51.25,3.92,6.38,3.95,6.14,0h0Z"/>
  <path class="st4" d="M303.56,156.21c-1.47-13.43-4.77-27.84-11.82-39.48-2.04-3.37-7.35-.29-5.3,3.1,6.44,10.64,9.63,24.08,10.98,36.39.43,3.88,6.57,3.93,6.14,0h0Z"/>
  <path class="st4" d="M307,156.85c-.63-5.9-1.99-11.84-4.98-17.01-1.98-3.41-7.28-.33-5.3,3.1,2.41,4.16,3.64,9.14,4.14,13.91.41,3.89,6.55,3.93,6.14,0h0Z"/>
  <path class="st4" d="M307.03,155.03c-1.3-9.53-4.19-18.57-8.52-27.14-1.78-3.52-7.08-.42-5.3,3.1,4.1,8.12,6.68,16.67,7.9,25.68.53,3.89,6.44,2.24,5.92-1.63h0Z"/>
  <g>
    <rect class="st1" x="218.37" y="20.2" width="42.91" height="42.91" rx="1.24" ry="1.24"/>
    <line class="st3" x1="230.31" y1="20.2" x2="221.92" y2="5.1"/>
    <line class="st3" x1="200.34" y1="5.64" x2="222.83" y2="5.64"/>
    <line class="st3" x1="218.37" y1="35.18" x2="200.34" y2="35.18"/>
    <line class="st3" x1="218.37" y1="52.86" x2="207.33" y2="63.43"/>
    <line class="st3" x1="190.66" y1="63.11" x2="208.04" y2="63.11"/>
    <line class="st3" x1="261.28" y1="29.7" x2="271.51" y2="29.7"/>
    <line class="st3" x1="261.28" y1="41.65" x2="283.72" y2="41.65"/>
    <line class="st3" x1="261.28" y1="57.01" x2="271.51" y2="57.01"/>
    <line class="st3" x1="249.19" y1="63.11" x2="256.82" y2="76.1"/>
    <line class="st3" x1="278.25" y1="75.6" x2="255.93" y2="75.6"/>
    <circle class="st3" cx="283.72" cy="75.6" r="4.6"/>
    <circle class="st3" cx="196.14" cy="5.64" r="4.6"/>
    <rect class="st2" x="226.6" y="28.43" width="26.45" height="26.45" rx="1.24" ry="1.24"/>
    <circle class="st3" cx="275.21" cy="28.43" r="4.6"/>
    <circle class="st3" cx="187.15" cy="63.11" r="4.6"/>
  </g>
</svg>